<?xml version="1.0" encoding="UTF-8"?>
<!--Generator: Apple Native CoreSVG 232.5-->
<!DOCTYPE svg
PUBLIC "-//W3C//DTD SVG 1.1//EN"
       "http://www.w3.org/Graphics/SVG/1.1/DTD/svg11.dtd">
<svg version="1.1" xmlns="http://www.w3.org/2000/svg" xmlns:xlink="http://www.w3.org/1999/xlink" width="110.043" height="109.587">
 <g>
  <rect height="109.587" opacity="0" width="110.043" x="0" y="0"/>
  <path d="M110.043 28.5762L110.043 68.4313C110.043 82.3633 102.164 90.4132 88.0191 90.4132L52.116 90.4132L33.8647 106.827C31.8705 108.672 30.6142 109.587 28.8713 109.587C26.4068 109.587 24.895 107.802 24.895 105.08L24.895 90.4132L22.0316 90.4132C7.88652 90.4132 0.00750854 82.4076 0.00750854 68.4313L0.00750854 28.5762C0.00750854 14.5999 7.88652 6.55205 22.0316 6.55205L88.0191 6.55205C102.164 6.55205 110.043 14.6442 110.043 28.5762ZM30.0078 43.1831C30.0078 49.0114 33.7193 53.4646 39.5677 53.4646C41.7592 53.4646 43.9265 52.9659 45.3218 51.2469L45.73 51.2469C43.8442 55.7647 39.5796 58.6217 36.4172 59.4982C34.5797 59.9264 34.045 60.6944 34.045 61.8906C34.045 63.131 35.028 64.1563 36.4595 64.1563C41.3749 64.1563 52.0145 58.121 52.0145 45.091C52.0145 37.9899 47.2897 32.7688 40.8061 32.7688C34.6782 32.7688 30.0078 37.1436 30.0078 43.1831ZM58.0563 43.1831C58.0563 49.0114 61.7677 53.4646 67.5739 53.4646C69.8076 53.4646 71.9749 52.9659 73.3702 51.2469L73.7784 51.2469C71.9148 55.7647 67.6501 58.6217 64.4235 59.4982C62.6081 59.9264 62.0512 60.6944 62.0512 61.8906C62.0512 63.131 63.0765 64.1563 64.5079 64.1563C69.4233 64.1563 80.0629 58.121 80.0629 45.091C80.0629 37.9899 75.2959 32.7688 68.8123 32.7688C62.6843 32.7688 58.0563 37.1436 58.0563 43.1831Z" fill="#ff0000"/>
 </g>
</svg>
